<svg width="100%" height="100%" viewBox="0 0 1280 1024" version="1.1" xmlns="http://www.w3.org/2000/svg" xmlns:xlink="http://www.w3.org/1999/xlink">
    <g transform="matrix(1.00611,0,0,1.00611,124.871,-0.221315)">
        <path d="M1024,512.22C1024,229.45 794.77,0.22 512,0.22C229.23,0.22 0,229.45 0,512.22C0,767.774 187.231,979.59 432,1018L432,660.22L302,660.22L302,512.22L432,512.22L432,399.42C432,271.1 508.438,200.22 625.39,200.22C681.407,200.22 740,210.22 740,210.22L740,336.22L675.438,336.22C611.835,336.22 592,375.687 592,416.177L592,512.22L734,512.22L711.3,660.22L592,660.22L592,1018C836.769,979.59 1024,767.774 1024,512.22Z" style="fill:white;fill-rule:nonzero;"/>
    </g>
</svg>
