<svg width="100%" height="100%" viewBox="0 0 1280 1024" version="1.1" xmlns="http://www.w3.org/2000/svg" xmlns:xlink="http://www.w3.org/1999/xlink">
    <g transform="matrix(25.0135,0,0,25.0135,-485.61,-613.587)">
        <path d="M50.076,46.458C48.309,44.572 45.859,43.469 43.276,43.398C45.429,42.948 47.398,41.864 48.928,40.284C50.173,38.721 50.802,36.753 50.692,34.758C50.721,33.057 50.31,31.376 49.5,29.88C48.682,28.464 47.485,27.305 46.044,26.532C44.57,25.755 42.976,25.231 41.328,24.984C38.12,24.615 34.89,24.471 31.662,24.552L20.448,24.552L20.448,65.452L32,65.452C35.355,65.52 38.71,65.364 42.044,64.984C43.837,64.739 45.576,64.198 47.192,63.384C48.859,62.52 50.232,61.179 51.134,59.532C52.084,57.757 52.562,55.767 52.52,53.754C52.66,51.101 51.786,48.491 50.076,46.458ZM30.816,33.606L33.21,33.606C35.982,33.606 37.842,33.918 38.79,34.542C39.8,35.296 40.341,36.528 40.212,37.782C40.334,39.029 39.741,40.244 38.682,40.914C37.674,41.526 35.782,41.814 33.03,41.814L30.816,41.814L30.816,33.606ZM40.316,57.06C39.216,57.726 37.346,58.05 34.716,58.05L30.816,58.05L30.816,49.14L34.884,49.14C37.584,49.14 39.456,49.482 40.446,50.166C41.53,51.029 42.101,52.388 41.958,53.766C42.119,55.1 41.465,56.408 40.3,57.078L40.316,57.06Z" style="fill:white;fill-rule:nonzero;"/>
    </g>
    <g transform="matrix(25.0135,0,0,25.0135,-485.61,-613.587)">
        <path d="M64.368,55.1C61.524,55.1 59.184,57.44 59.184,60.284C59.184,63.128 61.524,65.468 64.368,65.468C67.212,65.468 69.552,63.128 69.552,60.284C69.552,57.44 67.212,55.1 64.368,55.1Z" style="fill:white;fill-rule:nonzero;"/>
    </g>
    <g transform="matrix(25.0135,0,0,25.0135,-485.61,-613.587)">
        <rect x="59.868" y="24.552" width="9" height="27.274" style="fill:white;"/>
    </g>
</svg>
